Coordinates
version=1
nRows=9
nColumns=42
inDegrees=yes

Units are S.I. units (second, meters, Newtons, ...)
If the header above contains a line with 'inDegrees', this indicates whether rotational values are in degrees (yes) or radians (no).

endheader
time	pelvis_tilt	pelvis_list	pelvis_rotation	pelvis_tx	pelvis_ty	pelvis_tz	hip_flexion_r	hip_adduction_r	hip_rotation_r	knee_angle_r	knee_angle_r_beta	ankle_angle_r	subtalar_angle_r	mtp_angle_r	hip_flexion_l	hip_adduction_l	hip_rotation_l	knee_angle_l	knee_angle_l_beta	ankle_angle_l	subtalar_angle_l	mtp_angle_l	lumbar_extension	lumbar_bending	lumbar_rotation	sh_tx_r	sh_ty_r	sh_tz_r	sh_plane_elev_r	sh_elev_r	sh_axial_rot_r	elbow_flex_r	pro_sup_r	sh_tx_l	sh_ty_l	sh_tz_l	sh_plane_elev_l	sh_elev_l	sh_axial_rot_l	elbow_flex_l	pro_sup_l
      6.83050850	     -3.00869879	     -0.28356871	     -4.37755211	      0.32445715	      0.93070775	      0.00424530	      1.09755161	     -5.54876309	      0.75408375	      1.40717948	      0.02455992	      5.26354794	      1.03916854	     -7.49999987	     -1.39016338	     -3.92349421	    -14.20070345	      0.57419055	      0.01002152	      9.03277025	     -2.31203179	     -7.49999987	     -0.62080140	      0.78285971	     -9.21434391	      0.01004821	     -0.01796083	     -0.00431842	      4.35643805	      5.75474239	      1.34217774	     23.64416044	     72.47090574	     -0.00013637	     -0.01768331	     -0.00419662	     13.85678615	      6.99875822	     -4.71813950	     27.29997250	     59.64195850
      6.84745760	     -3.32749364	     -0.16183845	     -4.48033130	      0.32468136	      0.93383060	      0.00377967	      1.61867321	     -5.72583314	      0.73349632	      1.52985683	      0.02670104	      5.43198829	      1.42665780	     -7.49999987	     -0.96623245	     -3.75822357	    -14.34579912	      0.59523605	      0.01038883	      9.01379532	     -2.41253560	     -7.49999987	     -0.28581385	      0.78256101	     -9.47759783	      0.01071975	     -0.01794441	     -0.00452290	      4.31156044	      5.89017568	      1.46228469	     23.39897193	     71.90947039	     -0.00115351	     -0.01781301	     -0.00416174	     14.89679680	      7.15933520	     -4.72601542	     27.90755786	     59.34921014
      6.86440680	     -3.45426118	     -0.09276620	     -4.50570154	      0.32494929	      0.93389471	      0.00409140	      1.86479955	     -5.84631336	      0.71381509	      1.60006768	      0.02792645	      5.48738604	      1.60283353	     -7.49999987	     -0.76912693	     -3.63525629	    -14.40641024	      0.60761860	      0.01060495	      8.97814005	     -2.38345417	     -7.49999987	     -0.20877639	      0.74218574	     -9.52874959	      0.01078376	     -0.01795601	     -0.00444341	      4.14628697	      5.91711269	      1.64362654	     23.38522519	     70.80276477	     -0.00040060	     -0.01785282	     -0.00427103	     15.59695706	      7.26855267	     -4.81815142	     28.37886513	     59.05886814
      6.88135590	     -3.49190844	     -0.04607128	     -4.55309403	      0.32490082	      0.93402529	      0.00381015	      1.97238595	     -5.97299701	      0.77054660	      1.63371995	      0.02851379	      5.52507499	      1.83634574	     -7.49999987	     -0.68679599	     -3.52326994	    -14.48201631	      0.61199601	      0.01068135	      8.94962052	     -2.44557846	     -7.49999987	     -0.27436945	      0.80475256	     -9.39893516	      0.01004587	     -0.01794314	     -0.00447589	      4.11095462	      6.05907064	      1.46520641	     23.60167915	     69.69078952	      0.00041206	     -0.01788987	     -0.00424603	     16.72521092	      7.43302904	     -4.82878410	     28.78574171	     58.94993698
      6.89830510	     -3.72238871	     -0.00705180	     -4.55614201	      0.32448489	      0.93371680	      0.00409893	      2.49925284	     -6.05860332	      0.75315132	      2.09932341	      0.03664011	      5.80841123	      2.02523571	     -7.49999987	     -0.11297345	     -3.52503126	    -14.46580524	      1.15916020	      0.02023116	      9.09166813	     -2.61797211	     -7.49999987	     -0.39400731	      0.90165014	     -9.40739090	      0.00876892	     -0.01590822	     -0.00490088	      4.78948211	      6.48538552	      2.28770063	     24.22037788	     68.47055921	      0.00025464	     -0.01584399	     -0.00474866	     17.61434658	      7.74804117	     -4.73763802	     29.31901224	     58.65196825
      6.91525420	     -3.63926266	      0.04663109	     -4.62489064	      0.32497716	      0.93092357	      0.00422694	      2.14031958	     -6.17303030	      1.01320033	      1.57926337	      0.02756335	      5.64340113	      2.00576307	     -7.49999987	     -0.46931825	     -3.35602994	    -14.51949529	      0.63925211	      0.01115705	      8.85077870	     -2.63335199	     -7.49999987	     -0.15001198	      0.83323912	     -9.70440577	      0.01175560	     -0.01791893	     -0.00449482	      1.96088008	      5.99886339	      1.97904613	     24.37214637	     72.83714246	      0.00109462	     -0.01787829	     -0.00431974	     15.27886025	      7.26969340	     -3.93634875	     29.66065021	     60.72249416
      6.93220340	     -3.72455063	      0.10446337	     -4.68791057	      0.32544094	      0.93418591	      0.00429718	      2.25569272	     -6.25981258	      1.08276038	      1.61897366	      0.02825642	      5.64919431	      2.15921201	     -7.49999987	     -0.37301767	     -3.29152197	    -14.67826447	      0.65279755	      0.01139347	      8.82046733	     -2.46475727	     -7.49999987	     -0.05889996	      0.78220213	     -9.62184573	      0.01145198	     -0.01789366	     -0.00449546	      2.11185994	      6.06594108	      1.80496281	     24.56142005	     72.19195858	      0.00140888	     -0.01787151	     -0.00434388	     16.05318282	      7.34309582	     -4.09001983	     29.86094864	     60.48420657
      6.94915250	     -3.72414575	      0.13854112	     -4.68921692	      0.32535550	      0.93429011	      0.00407420	      2.21807942	     -6.31661024	      1.23408030	      1.54649911	      0.02699150	      5.60398622	      2.08340885	     -7.49999987	     -0.35692560	     -3.23419057	    -14.61285977	      0.67414364	      0.01176603	      8.70208851	     -2.64936643	     -7.49999987	     -0.11467268	      0.75160499	     -9.58161327	      0.01113801	     -0.01785804	     -0.00448614	      2.28510676	      6.13069185	      1.43906316	     24.84276698	     71.73523115	      0.00162454	     -0.01784732	     -0.00441397	     16.64239585	      7.49301839	     -4.31990201	     30.16967713	     60.40159680
      6.96610170	     -3.81581621	      0.18354434	     -4.73982559	      0.32555784	      0.93414285	      0.00439674	      2.32513520	     -6.37558492	      1.19223920	      1.56652178	      0.02734096	      5.67827502	      2.37632339	     -7.49999987	     -0.25844021	     -3.19437234	    -14.77156336	      0.69533860	      0.01213595	      8.69216862	     -2.49304697	     -7.49999987	      0.00262508	      0.69502444	     -9.31561057	      0.00996307	     -0.01785059	     -0.00452568	      2.64962041	      6.22702446	      1.20687887	     24.96121712	     70.88228885	      0.00223367	     -0.01784560	     -0.00443177	     17.77154551	      7.65547119	     -4.69826857	     30.18524433	     60.00957346
